# xmcd
#
# Track frame offsets: 
#        150
#        16841
#        32766
#        48906
#        71118
#        88250
#        111737
#        127476
#        142456
#        172620
#        195322
#        210767
#
# Disc length: 3157 seconds
#
# Revision: 0
# Processed by: cddbd v1.5.2PL0 Copyright (c) Steve Scherf et al.
# Submitted via: ExactAudioCopyFreeDBPlugin 1.0
#
DISCID=af0c530c
DTITLE=Jon Spear Band - Hot Sauce
DYEAR=2017
DGENRE=Blues
TTITLE0=Bottom of the Bottle
TTITLE1=Geographical Cure
TTITLE2=Really Great Gig
TTITLE3=Hot Sauce
TTITLE4=Noah's Blues
TTITLE5=Pierre Jourdan
TTITLE6=Hit the Quarter
TTITLE7=Butt Dial Kyle
TTITLE8=Wintertime
TTITLE9=1Blues for a Soldier
TTITLE10=Cheap Whiskey and Stale Cigarettes
TTITLE11=Natchez Burning
EXTD=
EXTT0=
EXTT1=
EXTT2=
EXTT3=
EXTT4=
EXTT5=
EXTT6=
EXTT7=
EXTT8=
EXTT9=
EXTT10=
EXTT11=
PLAYORDER=
